<svg xmlns="http://www.w3.org/2000/svg" width="256" height="256" viewBox="0 0 100 100"><rect width="100" height="100" rx="20" fill="#4e39ed"></rect><path fill="#fff" d="M17.99 70.85L1.61 70.85L1.61 67.55Q3.29 67.49 4.19 66.98Q5.09 66.47 5.45 65.18Q5.81 63.89 5.81 61.61L5.81 61.61L5.81 37.67Q5.81 36.17 5.90 34.79Q5.99 33.41 6.05 32.63L6.05 32.63Q5.03 32.69 3.71 32.72Q2.39 32.75 1.61 32.81L1.61 32.81L1.61 28.85Q5.57 28.79 9.56 28.76Q13.55 28.73 17.51 28.73L17.51 28.73Q22.97 28.73 26.78 29.99Q30.59 31.25 32.54 33.92Q34.49 36.59 34.43 40.91L34.43 40.91Q34.37 43.37 33.29 45.71Q32.21 48.05 29.87 49.85Q27.53 51.65 23.63 52.67L23.63 52.67Q24.77 53.27 25.82 54.41Q26.87 55.55 27.77 56.93L27.77 56.93L31.01 61.91Q32.21 63.77 33.23 65Q34.25 66.23 35.33 66.86Q36.41 67.49 37.91 67.55L37.91 67.55L37.91 70.85L28.79 70.85Q27.53 69.83 26.42 68.33Q25.31 66.83 24.11 64.85L24.11 64.85L19.79 57.95Q19.01 56.69 18.32 55.58Q17.63 54.47 16.79 53.69L16.79 53.69Q15.83 53.75 15.05 53.75Q14.27 53.75 13.37 53.69L13.37 53.69L13.37 61.85Q13.37 63.53 13.31 64.91Q13.25 66.29 13.13 67.07L13.13 67.07Q13.79 67.01 14.72 66.98Q15.65 66.95 16.55 66.92Q17.45 66.89 17.99 66.89L17.99 66.89L17.99 70.85ZM16.49 50.09L16.49 50.09Q19.85 50.03 22.04 49.07Q24.23 48.11 25.34 46.07Q26.45 44.03 26.45 40.85L26.45 40.85Q26.45 38.15 25.64 36.47Q24.83 34.79 23.48 33.89Q22.13 32.99 20.54 32.66Q18.95 32.33 17.39 32.33L17.39 32.33Q15.83 32.33 14.93 32.81Q14.03 33.29 13.70 34.52Q13.37 35.75 13.37 37.85L13.37 37.85L13.37 49.91Q14.09 49.97 14.87 50.03Q15.65 50.09 16.49 50.09ZM58.13 71.27L54.11 71.27L43.37 39.11Q42.65 36.89 42.23 35.30Q41.81 33.71 41.69 32.63L41.69 32.63Q40.67 32.69 39.80 32.72Q38.93 32.75 38.15 32.81L38.15 32.81L38.15 28.85L54.83 28.85L54.83 32.15Q52.19 32.15 51.26 33.23Q50.33 34.31 51.17 37.31L51.17 37.31Q52.07 40.91 53.09 44.27Q54.11 47.63 55.07 51.11L55.07 51.11Q55.73 53.39 56.30 55.34Q56.87 57.29 57.53 60.17L57.53 60.17L57.65 60.17Q57.89 59.27 58.31 57.71Q58.73 56.15 59.24 54.47Q59.75 52.79 60.14 51.38Q60.53 49.97 60.71 49.31L60.71 49.31Q61.91 45.47 63.08 41.78Q64.25 38.09 65.30 34.76Q66.35 31.43 67.13 28.79L67.13 28.79L71.33 28.79Q72.11 31.31 73.01 34.16Q73.91 37.01 74.87 39.98Q75.83 42.95 76.73 45.80Q77.63 48.65 78.41 51.05L78.41 51.05Q79.13 53.33 79.76 55.67Q80.39 58.01 80.99 60.41L80.99 60.41L81.11 60.41Q81.65 58.55 82.22 56.51Q82.79 54.47 83.45 52.31L83.45 52.31Q84.23 49.79 84.83 47.75Q85.43 45.71 85.94 44Q86.45 42.29 86.87 40.76Q87.29 39.23 87.71 37.73L87.71 37.73Q88.07 36.41 88.64 35.00Q89.21 33.59 89.99 32.63L89.99 32.63Q88.97 32.69 87.56 32.72Q86.15 32.75 85.31 32.81L85.31 32.81L85.31 28.85L98.39 28.85L98.39 32.15Q96.83 32.27 95.66 32.90Q94.49 33.53 93.53 35.06Q92.57 36.59 91.67 39.41L91.67 39.41Q89.15 47.45 86.63 55.40Q84.11 63.35 81.53 71.27L81.53 71.27L77.39 71.27L69.59 48.29Q68.93 46.19 68.42 44.21Q67.91 42.23 67.37 40.37L67.37 40.37Q67.01 42.23 66.56 43.97Q66.11 45.71 65.57 47.57L65.57 47.57L58.13 71.27Z"></path></svg>